<svg width="76" height="76" viewBox="0 0 76 76" fill="none" xmlns="http://www.w3.org/2000/svg">
<path d="M32.1863 38.844C32.7534 38.844 33.1591 38.6484 33.4036 38.2573C33.7654 37.6609 33.9463 36.1893 33.9463 33.8427V30.1613C33.9463 28.7631 33.8094 27.7218 33.5356 27.0373C33.2618 26.3529 32.812 26.0107 32.1863 26.0107C31.7463 26.0107 31.404 26.1671 31.1596 26.48C30.7196 27.0471 30.4996 28.4453 30.4996 30.6747V34.5027C30.4996 36.1258 30.6218 37.2551 30.8663 37.8907C31.1205 38.5262 31.5605 38.844 32.1863 38.844ZM33.6969 45.752C32.4258 45.752 31.5214 45.4 30.9836 44.696C30.4458 44.0018 30.1525 42.8284 30.1036 41.176C29.5071 41.0782 28.9694 40.9218 28.4903 40.7067C28.0111 40.4916 27.6005 40.2422 27.2583 39.9587C26.916 39.6653 26.6178 39.3133 26.3636 38.9027C26.1094 38.492 25.8991 38.0618 25.7329 37.612C25.5765 37.1622 25.4494 36.6538 25.3516 36.0867C25.2538 35.5098 25.1854 34.9378 25.1463 34.3707C25.1169 33.8036 25.1023 33.168 25.1023 32.464C25.1023 31.2907 25.1609 30.2689 25.2783 29.3987C25.4054 28.5284 25.6351 27.712 25.9676 26.9493C26.3 26.1769 26.74 25.5511 27.2876 25.072C27.8449 24.5929 28.5587 24.2164 29.4289 23.9427C30.3089 23.6689 31.3454 23.532 32.5383 23.532C33.3596 23.532 34.0978 23.6102 34.7529 23.7667C35.408 23.9133 35.9703 24.1187 36.4396 24.3827C36.9089 24.6467 37.3147 24.9889 37.6569 25.4093C38.0089 25.8298 38.2876 26.2796 38.4929 26.7587C38.708 27.228 38.8791 27.7804 39.0063 28.416C39.1334 29.0516 39.2214 29.6822 39.2703 30.308C39.3191 30.9338 39.3436 31.6427 39.3436 32.4347C39.3436 33.3733 39.3045 34.2142 39.2263 34.9573C39.148 35.6907 39.0063 36.3947 38.8009 37.0693C38.5956 37.7342 38.3267 38.3111 37.9943 38.8C37.6716 39.2889 37.2511 39.7191 36.7329 40.0907C36.2245 40.4524 35.6231 40.736 34.9289 40.9413V41.0147C34.9289 41.7969 35.0414 42.3151 35.2663 42.5693C35.5009 42.8236 35.8578 42.9507 36.3369 42.9507C36.4738 42.9507 36.6009 42.936 36.7183 42.9067C36.8454 42.8871 36.9578 42.8578 37.0556 42.8187C37.1534 42.7796 37.2463 42.7307 37.3343 42.672V44.6667C37.3245 44.6764 37.3098 44.6911 37.2903 44.7107C36.4885 45.4049 35.2907 45.752 33.6969 45.752ZM40.8674 41V23.8107H45.7221V37.0693H50.0928V41H40.8674Z" fill="#0C4E9B" fill-opacity="0.9"/>
<path d="M32.1863 38.844C32.7534 38.844 33.1591 38.6484 33.4036 38.2573C33.7654 37.6609 33.9463 36.1893 33.9463 33.8427V30.1613C33.9463 28.7631 33.8094 27.7218 33.5356 27.0373C33.2618 26.3529 32.812 26.0107 32.1863 26.0107C31.7463 26.0107 31.404 26.1671 31.1596 26.48C30.7196 27.0471 30.4996 28.4453 30.4996 30.6747V34.5027C30.4996 36.1258 30.6218 37.2551 30.8663 37.8907C31.1205 38.5262 31.5605 38.844 32.1863 38.844ZM33.6969 45.752C32.4258 45.752 31.5214 45.4 30.9836 44.696C30.4458 44.0018 30.1525 42.8284 30.1036 41.176C29.5071 41.0782 28.9694 40.9218 28.4903 40.7067C28.0111 40.4916 27.6005 40.2422 27.2583 39.9587C26.916 39.6653 26.6178 39.3133 26.3636 38.9027C26.1094 38.492 25.8991 38.0618 25.7329 37.612C25.5765 37.1622 25.4494 36.6538 25.3516 36.0867C25.2538 35.5098 25.1854 34.9378 25.1463 34.3707C25.1169 33.8036 25.1023 33.168 25.1023 32.464C25.1023 31.2907 25.1609 30.2689 25.2783 29.3987C25.4054 28.5284 25.6351 27.712 25.9676 26.9493C26.3 26.1769 26.74 25.5511 27.2876 25.072C27.8449 24.5929 28.5587 24.2164 29.4289 23.9427C30.3089 23.6689 31.3454 23.532 32.5383 23.532C33.3596 23.532 34.0978 23.6102 34.7529 23.7667C35.408 23.9133 35.9703 24.1187 36.4396 24.3827C36.9089 24.6467 37.3147 24.9889 37.6569 25.4093C38.0089 25.8298 38.2876 26.2796 38.4929 26.7587C38.708 27.228 38.8791 27.7804 39.0063 28.416C39.1334 29.0516 39.2214 29.6822 39.2703 30.308C39.3191 30.9338 39.3436 31.6427 39.3436 32.4347C39.3436 33.3733 39.3045 34.2142 39.2263 34.9573C39.148 35.6907 39.0063 36.3947 38.8009 37.0693C38.5956 37.7342 38.3267 38.3111 37.9943 38.8C37.6716 39.2889 37.2511 39.7191 36.7329 40.0907C36.2245 40.4524 35.6231 40.736 34.9289 40.9413V41.0147C34.9289 41.7969 35.0414 42.3151 35.2663 42.5693C35.5009 42.8236 35.8578 42.9507 36.3369 42.9507C36.4738 42.9507 36.6009 42.936 36.7183 42.9067C36.8454 42.8871 36.9578 42.8578 37.0556 42.8187C37.1534 42.7796 37.2463 42.7307 37.3343 42.672V44.6667C37.3245 44.6764 37.3098 44.6911 37.2903 44.7107C36.4885 45.4049 35.2907 45.752 33.6969 45.752ZM40.8674 41V23.8107H45.7221V37.0693H50.0928V41H40.8674Z" fill="#075691" fill-opacity="0.5"/>
<g filter="url(#filter0_d_104_2)">
<mask id="mask0_104_2" style="mask-type:luminance" maskUnits="userSpaceOnUse" x="4" y="0" width="68" height="68">
<path d="M72 0H4V68H72V0Z" fill="white"/>
</mask>
<g mask="url(#mask0_104_2)">
<path d="M49.152 4.61892L58.0168 13.4848C58.1961 13.805 58.3656 14.1349 58.5305 14.4641C58.5312 14.4714 58.5348 14.4782 58.5403 14.4829C58.5449 14.4874 58.5449 14.4874 58.5449 14.4972C60.5043 18.4431 61.5086 22.7944 61.4767 27.1999C61.4447 31.6055 60.3776 35.9417 58.3611 39.8588C58.0168 40.5232 57.6493 41.1732 57.2485 41.8098C57.2451 41.8181 57.2405 41.8259 57.235 41.8331C56.1066 43.6329 54.7785 45.2993 53.276 46.8009L53.0733 47.0035C55.3117 44.4059 56.8411 41.2742 57.5132 37.9118C58.1853 34.5494 57.9774 31.0703 56.9096 27.8119L56.9051 27.8074C56.0096 25.0645 54.5275 22.5497 52.5619 20.4375C50.5963 18.3254 48.1943 16.6666 45.5229 15.5766C44.9339 15.1947 44.3305 14.8362 43.7151 14.5063C43.4605 14.3654 43.1879 14.2283 42.928 14.0965C42.7675 14.0114 42.6026 13.9315 42.4421 13.8562C42.2493 13.7665 42.0557 13.6679 41.8531 13.5873C41.7168 13.5263 41.5752 13.46 41.429 13.399C41.1654 13.286 40.892 13.173 40.6186 13.0592C40.312 12.9417 40.0107 12.8189 39.6996 12.7157C39.5294 12.6593 39.3697 12.602 39.1949 12.5508C39.0398 12.489 38.865 12.437 38.7001 12.3858C38.5351 12.3346 38.3558 12.2773 38.1773 12.2299C37.9227 12.1455 37.6636 12.0838 37.409 12.0182C37.0603 11.9233 36.707 11.8435 36.3583 11.7584C36.3394 11.7681 36.3341 11.7636 36.3153 11.7538C35.9523 11.674 35.5847 11.5987 35.2224 11.5467C34.8593 11.4759 34.4872 11.4149 34.1144 11.3719C33.7415 11.329 33.3792 11.2687 33.0026 11.2401C32.9771 11.2437 32.9511 11.2406 32.9273 11.2311C32.5838 11.1979 32.2441 11.1693 31.8953 11.1603C31.5232 11.1369 31.1602 11.1226 30.7835 11.1226C30.4107 11.1083 30.0431 11.1083 29.6612 11.1226C29.3177 11.1271 28.9637 11.1414 28.6067 11.1693H28.5509C28.3672 11.1836 28.1781 11.1934 27.9996 11.2122C27.806 11.2258 27.6177 11.2454 27.4339 11.2687C27.0708 11.3019 26.6942 11.3486 26.3259 11.4051C26.1331 11.4292 25.9395 11.4525 25.7512 11.4902C25.5629 11.5279 25.3693 11.561 25.181 11.5889C25.1011 11.6032 25.0258 11.622 24.9452 11.6363C24.6062 11.7019 24.2575 11.7779 23.9133 11.8578C23.5125 11.9474 23.1163 12.0506 22.7209 12.1644C22.565 12.2065 22.4143 12.2442 22.2637 12.3007C22.1078 12.3429 21.9669 12.3903 21.8117 12.4423C21.6629 12.4825 21.5165 12.5313 21.3733 12.5884C21.0389 12.6969 20.7 12.8189 20.3648 12.9462C20.2661 12.9794 20.1621 13.0171 20.0635 13.0592C19.8232 13.1489 19.5919 13.2573 19.3517 13.3605C19.3038 13.3749 19.258 13.3953 19.2153 13.4216C19.0451 13.4871 18.8801 13.5579 18.7152 13.6385C18.5502 13.7191 18.4048 13.7794 18.2444 13.8645L18.2316 13.8637H18.2218C18.0666 13.9345 17.9115 14.0144 17.751 14.0995C17.4821 14.2268 17.2238 14.3729 16.9639 14.51L26.8471 4.62645C28.3102 3.15912 30.0483 1.99484 31.962 1.20027C33.8756 0.405695 35.9272 -0.00355335 37.9993 -0.00404314C40.0713 -0.00453293 42.1231 0.40375 44.0371 1.19742C45.9511 1.99109 47.6898 3.15454 49.1535 4.62117L49.152 4.61892Z" fill="#5856D6"/>
<path d="M58.0167 13.487L67.3772 22.8471C68.8451 24.3104 70.0099 26.0492 70.8046 27.9636C71.5993 29.878 72.0084 31.9304 72.0084 34.0032C72.0084 36.0761 71.5993 38.1285 70.8046 40.0429C70.0099 41.9573 68.8451 43.6961 67.3772 45.1594L55.4813 57.0549C55.0949 57.1777 54.7039 57.2952 54.3077 57.3992L54.3032 57.4037C54.2934 57.4037 54.2934 57.4037 54.2889 57.409C53.2005 57.7004 52.0959 57.9269 50.9807 58.0869C45.0153 58.9545 38.9291 57.8732 33.6276 55.0038C32.4318 54.3608 31.2864 53.6284 30.2011 52.8126L30.1913 52.8028C29.6776 52.4216 29.1684 52.0164 28.6788 51.5915C32.4416 53.5848 36.7443 54.319 40.9551 53.6862C45.1658 53.0535 49.0628 51.0872 52.0736 48.0761C52.4277 47.722 52.7621 47.3688 53.0732 47.0012L53.2758 46.7985C54.7784 45.297 56.1065 43.6305 57.2348 41.8308C57.2403 41.8236 57.2449 41.8158 57.2484 41.8074C57.6491 41.1709 58.0167 40.5208 58.3609 39.8565C60.3773 35.9394 61.4446 31.6031 61.4765 27.1976C61.5085 22.7921 60.5041 18.4408 58.5447 14.4949C58.5447 14.4851 58.5447 14.4851 58.5402 14.4806C58.5345 14.4758 58.531 14.469 58.5304 14.4617C58.3654 14.1348 58.1959 13.8049 58.0167 13.487Z" fill="#0C4E9B"/>
<path d="M55.4813 57.0527L49.1541 63.3801C46.1955 66.3387 42.1828 68.0008 37.9987 68.0008C33.8146 68.0008 29.8019 66.3387 26.8433 63.3801L17.238 53.7745C16.9412 53.1011 16.6678 52.4126 16.4275 51.7196V51.7008C16.2957 51.3241 16.1729 50.9475 16.0644 50.5648C15.9936 50.3343 15.9281 50.0986 15.8573 49.8673C15.7443 49.4154 15.6313 48.9717 15.5364 48.5197C15.4423 48.0859 15.3526 47.6572 15.2773 47.2143C15.202 46.7714 15.1455 46.3277 15.089 45.8848C15.0325 45.4419 14.9948 44.999 14.9617 44.5606C14.9286 44.1222 14.9052 43.6747 14.8954 43.222C14.8856 42.7693 14.8819 42.3309 14.8954 41.8835C14.9142 40.9977 14.976 40.1065 15.0792 39.2207C15.1786 38.3484 15.3248 37.4882 15.5033 36.628C15.5081 36.6056 15.5146 36.5838 15.5229 36.5624C15.6117 36.1338 15.7202 35.7045 15.8242 35.2819C15.8345 35.2614 15.8409 35.2392 15.843 35.2164L16.0125 34.622C16.1631 34.1128 16.3235 33.6134 16.5028 33.1155C16.5827 32.8752 16.6768 32.6395 16.7665 32.3992C16.8802 32.1069 16.9977 31.8101 17.1205 31.5269C17.238 31.2587 17.3608 30.9853 17.4828 30.7119L17.4881 30.6975C17.5679 30.5326 17.6477 30.3586 17.7283 30.1936C17.8458 29.9624 17.9686 29.7176 18.0959 29.4863C18.1752 29.3154 18.2632 29.1487 18.3595 28.9869C18.581 28.5862 18.8115 28.1854 19.057 27.799C19.0546 27.8384 19.0498 27.8776 19.0427 27.9165C18.3236 30.1751 18.0109 32.5434 18.1193 34.9113C18.2777 38.3699 19.3345 41.7275 21.1858 44.6532C23.0372 47.5788 25.6189 49.9715 28.6766 51.5953C29.1662 52.0201 29.6754 52.4239 30.1891 52.8065L30.1989 52.8163C31.2842 53.6321 32.4296 54.3646 33.6254 55.0076C38.9269 57.877 45.0131 58.9583 50.9785 58.0907C52.0937 57.9306 53.1984 57.7042 54.2867 57.4127C54.2912 57.4075 54.2912 57.4075 54.301 57.4075L54.3055 57.403C54.704 57.293 55.0949 57.1762 55.4813 57.0527Z" fill="#5856D6"/>
<path d="M45.4564 15.5352C44.8914 15.1676 44.3069 14.8189 43.7179 14.5025C43.5243 14.394 43.3127 14.2855 43.11 14.1869C43.0249 14.1402 42.9639 14.107 42.9308 14.0927C42.7703 14.0076 42.6054 13.9277 42.4449 13.8524C42.2521 13.7628 42.0585 13.6641 41.8559 13.5835C41.7196 13.5225 41.5779 13.4562 41.4318 13.3952C41.1682 13.2822 40.8948 13.1692 40.6213 13.0555C40.3148 12.938 40.0082 12.8205 39.7024 12.712C39.5322 12.6555 39.3725 12.5982 39.1977 12.547C39.038 12.4905 38.8678 12.4333 38.7028 12.3821C38.5379 12.3308 38.3586 12.2736 38.1801 12.2261C37.9255 12.1418 37.6664 12.08 37.4118 12.0145C37.063 11.9196 36.7098 11.8397 36.361 11.7546C36.3422 11.7644 36.3369 11.7599 36.3181 11.7501C35.9505 11.6747 35.5875 11.6039 35.2251 11.5429C34.8628 11.4819 34.49 11.4201 34.1171 11.3682C33.7443 11.3162 33.382 11.274 33.0054 11.2363C32.9799 11.24 32.9539 11.2369 32.93 11.2273C32.5813 11.1987 32.2423 11.1708 31.8981 11.1565C31.5215 11.1377 31.1584 11.1234 30.7863 11.1188C30.4142 11.1143 30.0459 11.1045 29.664 11.1188C29.3205 11.1234 28.9665 11.1377 28.6095 11.1655H28.5507C28.3669 11.1798 28.1779 11.1896 27.9993 11.2085L27.4337 11.265C27.0706 11.2981 26.694 11.3448 26.3256 11.4013C26.1373 11.4299 25.9445 11.4631 25.7509 11.4864C25.5573 11.5098 25.369 11.5572 25.1807 11.5851C25.1009 11.5994 25.0256 11.6182 24.945 11.6326C24.606 11.6981 24.2573 11.7742 23.913 11.854C23.5123 11.9437 23.1161 12.0469 22.7207 12.1606C22.5647 12.2028 22.4141 12.2404 22.2634 12.2969C22.1075 12.3391 21.9667 12.3866 21.8115 12.4385C21.6627 12.4788 21.5163 12.5276 21.3731 12.5847C21.0387 12.6932 20.7042 12.8107 20.3645 12.9425C20.2659 12.9756 20.1619 13.0133 20.0632 13.0555C19.8184 13.1504 19.5827 13.2445 19.3514 13.3568C19.3036 13.3711 19.2577 13.3917 19.2151 13.4178C19.0449 13.4833 18.8799 13.5541 18.7149 13.6347C18.55 13.7153 18.4046 13.7756 18.2442 13.8607L18.2314 13.8637H18.2216C18.0664 13.9345 17.9112 14.0144 17.7508 14.0995C17.4819 14.2268 17.2235 14.3729 16.9637 14.51L8.62611 22.8471L8.62159 22.8516C7.15686 24.3158 5.99496 26.0543 5.20222 27.9677C4.40949 29.881 4.00146 31.9318 4.00146 34.0029C4.00146 36.074 4.40949 38.1249 5.20222 40.0382C5.99496 41.9516 7.15686 43.69 8.62159 45.1542L17.2416 53.7746C16.9403 53.0868 16.6669 52.3893 16.4266 51.6865C16.1389 50.8625 15.8993 50.0294 15.6914 49.1887C15.6342 48.9718 15.5875 48.7458 15.5408 48.5198C15.4466 48.0859 15.357 47.6573 15.2817 47.2144C15.2064 46.7715 15.1401 46.3376 15.0934 45.8849C15.0369 45.4518 14.9894 45.0081 14.9661 44.5607C14.9427 44.1132 14.9051 43.6696 14.8998 43.2221C14.881 42.7792 14.881 42.3265 14.8998 41.8836C14.9186 40.9977 14.9751 40.1021 15.0836 39.2208C15.1823 38.3545 15.3256 37.4939 15.5129 36.6424C15.5147 36.6153 15.5196 36.5885 15.5272 36.5625C15.6116 36.1475 15.7058 35.7422 15.8142 35.3324C16.1632 34.0344 16.6011 32.7619 17.1249 31.524C17.2424 31.2558 17.3651 30.9824 17.4872 30.7089L17.4924 30.6946C17.5723 30.5296 17.6521 30.3556 17.7327 30.1907C17.7497 30.1654 17.7639 30.1384 17.7749 30.1101C17.8788 29.8931 17.9918 29.686 18.1003 29.4834C18.1796 29.3125 18.2676 29.1458 18.3639 28.984C18.5854 28.5832 18.8159 28.1825 19.0614 27.7961C19.0524 27.8337 19.0569 27.8759 19.0471 27.9136C19.0712 27.8337 19.0991 27.7682 19.1179 27.6921L19.1322 27.6786C20.0998 24.754 21.7416 22.098 23.9251 19.9252C27.4812 16.3608 32.2593 14.2817 37.2913 14.1093C37.3149 14.1055 37.3391 14.1071 37.3621 14.1138C38.9212 14.0618 40.481 14.1948 42.0088 14.51H42.0186C42.2822 14.5665 42.5459 14.623 42.8102 14.6885C43.7342 14.9188 44.6405 15.2151 45.5219 15.5751C45.4993 15.5632 45.4774 15.5498 45.4564 15.5352Z" fill="#0C4E9B"/>
<g style="mix-blend-mode:multiply" opacity="0.08">
<path d="M49.5804 5.05049L58.0167 13.487C60.9473 18.8023 62.0697 24.9266 61.2145 30.9356C60.3593 36.9448 57.5729 42.5128 53.2758 46.7993L53.0732 47.0019C55.3116 44.4044 56.8409 41.2727 57.5131 37.9103C58.1852 34.5478 57.9773 31.0688 56.9094 27.8103C56.9094 27.8005 56.9049 27.8058 56.9049 27.8058C56.4755 21.5296 54.4772 13.9231 49.5804 5.05049Z" fill="black"/>
</g>
<g style="mix-blend-mode:multiply" opacity="0.08">
<path d="M60.9716 51.5622L55.4813 57.0528C50.9194 58.5093 46.0602 58.7719 41.3679 57.8156C36.6757 56.8592 32.3069 54.7158 28.6788 51.5901C31.7446 53.2156 35.183 54.0088 38.6509 53.8906C46.1651 55.1365 53.8763 54.3321 60.9716 51.5622Z" fill="black"/>
</g>
<g style="mix-blend-mode:multiply" opacity="0.08">
<path d="M19.06 27.7938C19.0576 27.8333 19.0528 27.8725 19.0457 27.9114C18.3266 30.17 18.0139 32.5383 18.1222 34.9062C17.7313 40.4155 18.1644 48.1922 21.2655 57.7977L17.2409 53.7724C16.7788 52.7297 16.3868 51.6575 16.0674 50.5627C15.9966 50.3322 15.9311 50.0965 15.8603 49.8652C15.7473 49.4132 15.6343 48.9696 15.5394 48.5176C15.4452 48.0837 15.3556 47.6551 15.2803 47.2122C15.2049 46.7693 15.1484 46.3256 15.092 45.8827C15.0355 45.4398 14.9978 44.9968 14.9647 44.5584C14.9315 44.12 14.9082 43.6726 14.8984 43.2199C14.8886 42.7672 14.8848 42.3288 14.8984 41.8814C14.9172 40.9955 14.979 40.1044 15.0822 39.2186C15.1816 38.3463 15.3277 37.4861 15.5062 36.6259C15.5111 36.6035 15.5176 36.5816 15.5258 36.5603C15.6147 36.1317 15.7232 35.7024 15.8271 35.2798C15.8375 35.2593 15.8439 35.2371 15.8459 35.2142L16.0154 34.6199C16.1661 34.1107 16.3265 33.6112 16.5058 33.1133C16.5856 32.873 16.6798 32.6373 16.7694 32.3971C16.8831 32.1048 17.0007 31.808 17.1234 31.5248C17.3163 31.0773 17.5189 30.6291 17.7313 30.1914C17.8488 29.9602 17.9716 29.7154 18.0989 29.4842C18.1782 29.3133 18.2662 29.1466 18.3625 28.9848C18.5832 28.581 18.8144 28.1802 19.06 27.7938Z" fill="black"/>
</g>
<g style="mix-blend-mode:multiply" opacity="0.08">
<path d="M45.5226 15.5729C44.6412 15.2129 43.7349 14.9165 42.8109 14.6863C42.5559 14.5928 42.2898 14.5328 42.0193 14.5078H42.0095C40.4817 14.1925 38.9219 14.0595 37.3628 14.1115C37.3398 14.1048 37.3156 14.1033 37.292 14.107C30.9535 13.9421 21.16 15.4502 8.62756 22.8449L16.9652 14.5078C17.2243 14.3707 17.4834 14.2245 17.7523 14.0972C17.9128 14.0129 18.0679 13.9323 18.2231 13.8615C18.2284 13.8569 18.2419 13.8615 18.2472 13.8569C18.4076 13.7718 18.5628 13.7018 18.718 13.631C18.8731 13.5601 19.0479 13.4804 19.2181 13.4141C19.2607 13.3879 19.3065 13.3674 19.3545 13.3531C19.5857 13.2446 19.8214 13.1504 20.0662 13.0517C20.1649 13.0095 20.2689 12.9719 20.3676 12.9388C20.7073 12.807 21.0416 12.6894 21.3761 12.5809C21.5193 12.5238 21.6657 12.475 21.8145 12.4348C21.9704 12.3828 22.1112 12.3353 22.2664 12.2932C22.4171 12.2367 22.5677 12.199 22.7236 12.1568C23.1191 12.0431 23.5153 11.9399 23.9161 11.8502C24.2603 11.7704 24.609 11.6944 24.9479 11.6289C25.0285 11.6145 25.1038 11.5957 25.1838 11.5814C25.3721 11.5535 25.5604 11.5159 25.754 11.4827C25.9475 11.4496 26.1404 11.4262 26.3287 11.3975C26.697 11.341 27.0736 11.2943 27.4366 11.2612L28.0024 11.2048C28.1809 11.1859 28.3699 11.1761 28.5537 11.1618H28.6102C28.9679 11.1339 29.322 11.1196 29.6648 11.1151C30.0467 11.1007 30.4179 11.1007 30.787 11.1151C31.1561 11.1294 31.5222 11.134 31.8988 11.1528C32.243 11.1671 32.5821 11.1949 32.9308 11.2235C32.9547 11.2332 32.9806 11.2363 33.006 11.2326C33.3827 11.2703 33.7502 11.3178 34.1178 11.3645C34.4854 11.4112 34.8583 11.4729 35.2259 11.5392C35.5935 11.6055 35.9513 11.671 36.3189 11.7463C36.3377 11.7561 36.3429 11.7607 36.3617 11.7509C36.7105 11.836 37.0637 11.9158 37.4126 12.0107C37.6672 12.0762 37.9263 12.1381 38.1809 12.2224C38.3594 12.2699 38.5296 12.3264 38.7036 12.3784C38.8776 12.4303 39.0388 12.4867 39.1985 12.5432C39.3732 12.5945 39.5329 12.6518 39.7032 12.7083C40.0089 12.8168 40.3155 12.9342 40.6221 13.0517C40.8955 13.1654 41.1689 13.2777 41.4325 13.3915C41.5786 13.4525 41.7202 13.5188 41.8566 13.5798C42.0592 13.6604 42.2528 13.759 42.4456 13.8486C42.6061 13.924 42.771 14.0038 42.9315 14.0889C42.9646 14.1032 43.0257 14.1364 43.1108 14.1831L43.6621 14.4988C44.3076 14.8717 45.1746 15.3711 45.4571 15.5315C45.4781 15.5467 45.4999 15.5604 45.5226 15.5729Z" fill="black"/>
</g>
<g style="mix-blend-mode:multiply" opacity="0.25">
<path d="M54.3028 57.4023C54.293 57.4023 54.293 57.4023 54.2885 57.4075C53.2002 57.699 52.0955 57.9253 50.9803 58.0855C45.0149 58.9531 38.9287 57.8718 33.6272 55.0024C32.4314 54.3594 31.286 53.6269 30.2007 52.8111C30.2715 52.8443 30.606 53.0371 31.1528 53.3294C31.7607 53.6638 32.642 54.1211 33.7071 54.6099C34.2539 54.8457 34.8286 55.1093 35.4508 55.3549C35.7619 55.4867 36.0873 55.6042 36.4217 55.7225C36.7562 55.8408 37.0816 55.9673 37.4303 56.0803C38.1233 56.3206 38.8487 56.5187 39.5838 56.7168C40.319 56.9149 41.0828 57.0844 41.8435 57.2207C42.6028 57.3767 43.3711 57.4942 44.1296 57.5838C44.8881 57.6734 45.6361 57.7443 46.3682 57.7774C47.1004 57.8105 47.7994 57.8384 48.4705 57.8339C49.1416 57.8294 49.7616 57.8151 50.3649 57.7774C50.9682 57.7397 51.4865 57.7111 51.9768 57.6644C52.4672 57.6177 52.8724 57.5695 53.2212 57.5318C53.8644 57.4535 54.2554 57.4023 54.3028 57.4023Z" fill="black"/>
</g>
<g style="mix-blend-mode:multiply" opacity="0.25">
<path d="M58.5445 14.4935C60.5039 18.4393 61.5082 22.7907 61.4763 27.1962C61.4444 31.6017 60.3771 35.938 58.3607 39.8551C58.0164 40.5195 57.6489 41.1695 57.2481 41.8061C57.2813 41.7066 57.4508 41.3112 57.7295 40.6935C57.8756 40.3402 58.1204 39.8973 58.2899 39.4167C58.4737 38.903 58.7418 38.3275 58.9354 37.7053C59.0393 37.3942 59.1478 37.0695 59.2653 36.7343C59.3647 36.3908 59.4634 36.0368 59.5719 35.6745C59.6887 35.3059 59.7862 34.9316 59.8641 34.5529C59.9492 34.1657 60.0622 33.7793 60.1376 33.374C60.2129 32.9688 60.2927 32.559 60.3688 32.144C60.4449 31.7289 60.4818 31.3048 60.5473 30.8807C60.6129 30.4566 60.6513 30.0235 60.6889 29.5896C60.7266 29.1558 60.774 28.7226 60.7688 28.2842C60.7831 27.8458 60.8207 27.412 60.8207 26.9781C60.8207 26.5442 60.8064 26.1066 60.8019 25.678C60.7364 24.82 60.7266 23.9718 60.6091 23.156C60.5383 22.341 60.3876 21.5584 60.2792 20.8089C60.2038 20.4413 60.1232 20.0782 60.0532 19.7347C59.9956 19.3948 59.9203 19.0581 59.8272 18.7261C59.6577 18.0851 59.5161 17.4907 59.3512 16.977C59.1862 16.4633 59.0687 15.9978 58.9226 15.634C58.7094 15.0261 58.5821 14.6171 58.5445 14.4935Z" fill="black"/>
</g>
<g style="mix-blend-mode:multiply" opacity="0.25">
<path d="M17.4851 30.7066L17.0708 32.2132C16.9201 32.7126 16.8064 33.2218 16.6791 33.7265C16.5518 34.2312 16.4486 34.7396 16.3356 35.239L16.2927 35.4326L16.2648 35.6021L16.194 35.993L16.1277 36.3795L16.0953 36.5731L16.081 36.6627C16.0822 36.6544 16.0806 36.6459 16.0765 36.6386L16.0712 36.7282L15.8219 38.628L15.7556 39.0987L15.7323 39.217L15.7278 39.2592L15.7225 39.2637L15.7278 39.269V39.278L15.7225 39.3021L15.7089 39.5138L15.657 40.4704C15.6381 40.7913 15.6238 41.1069 15.5907 41.4226L15.5575 41.8986L15.5485 42.3325L15.544 43.2605C15.5575 43.5769 15.5575 43.897 15.5628 44.2126L15.5673 44.4529V44.5094L15.5628 44.5147L15.5673 44.5283L15.5628 44.5426L15.5764 44.6608L15.605 45.1414L15.6328 45.613L15.6426 45.8291L15.6615 46.0649L15.7413 47.0216L15.8543 47.9458L15.9063 48.4219L15.9726 48.8836C15.9914 49.1661 16.0765 49.5058 16.1277 49.8124C16.2415 50.4338 16.3447 51.0658 16.429 51.6955C16.2972 51.3189 16.1744 50.9423 16.066 50.5596C15.9952 50.3291 15.9296 50.0934 15.8588 49.8621C15.7458 49.4102 15.6328 48.9665 15.5379 48.5145C15.4438 48.0806 15.3542 47.652 15.2788 47.2091C15.2035 46.7662 15.147 46.3225 15.0905 45.8796C15.034 45.4367 14.9964 44.9938 14.9632 44.5554C14.9301 44.117 14.9067 43.6695 14.8969 43.2168C14.8871 42.7641 14.8834 42.3257 14.8969 41.8783C14.9158 40.9924 14.9775 40.1013 15.0807 39.2155C15.1802 38.3432 15.3263 37.483 15.5048 36.6228C15.5096 36.6005 15.5162 36.5786 15.5244 36.5572C15.6133 36.1286 15.7217 35.6993 15.8257 35.2767C15.8361 35.2563 15.8425 35.234 15.8445 35.2112L16.014 34.6168C16.1646 34.1076 16.3251 33.6082 16.5043 33.1103C16.5842 32.87 16.6783 32.6342 16.768 32.394C16.8817 32.1017 16.9992 31.8049 17.122 31.5217C17.2403 31.2535 17.363 30.9801 17.4851 30.7066Z" fill="black"/>
</g>
<g style="mix-blend-mode:multiply" opacity="0.25">
<path d="M41.4307 13.3951C40.9923 13.2768 40.5728 13.1593 40.1344 13.0509L39.8098 12.971C39.6915 12.9379 39.6117 12.9145 39.4934 12.8904L38.8433 12.7398L38.2024 12.5982L37.5426 12.4663L36.36 12.2449H36.3404C36.304 12.2449 36.2679 12.2403 36.2326 12.2313C36.2286 12.228 36.2236 12.2261 36.2183 12.226L36.2138 12.2215L35.4026 12.1176C35.2618 12.0987 35.1344 12.0754 34.9928 12.0664L34.5778 12.0189L34.159 11.9669L33.9797 11.9481L33.7673 11.9247L33.0042 11.8585H32.9855C32.9664 11.8561 32.9472 11.8561 32.9282 11.8585C32.9004 11.8585 32.877 11.8539 32.8341 11.8494C32.4951 11.8396 32.1561 11.8118 31.8308 11.7974L30.7701 11.7741L29.6863 11.7831L28.64 11.8208H28.6113L28.6069 11.8163L28.6024 11.8208C28.3425 11.8351 28.0834 11.8494 27.8153 11.8728L27.4334 11.9149L27.0372 11.9526L26.2455 12.0279L25.8493 12.0754L25.4681 12.1274C25.331 12.1507 25.2226 12.165 25.0818 12.1929L24.7088 12.2547L24.3135 12.3202L24.1154 12.3488C24.0893 12.3565 24.0625 12.3613 24.0355 12.3631L23.936 12.3865L23.1489 12.5417L22.3956 12.7021L22.3769 12.7119C22.1366 12.7631 21.8963 12.8151 21.6462 12.8859L20.8968 13.0795L20.1526 13.2768L19.4129 13.5028L19.3887 13.5073L19.2802 13.5405L19.2668 13.545C18.9368 13.649 18.5828 13.7476 18.2439 13.8606C18.4043 13.7755 18.5595 13.7055 18.7146 13.6346C18.8698 13.5638 19.0446 13.484 19.2148 13.4177C19.2573 13.3916 19.3032 13.3711 19.3511 13.3567C19.5824 13.2482 19.8181 13.1541 20.0629 13.0554C20.1615 13.0132 20.2656 12.9755 20.3642 12.9424C20.7039 12.8106 21.0383 12.6931 21.3727 12.5846C21.5159 12.5275 21.6624 12.4787 21.8111 12.4385C21.967 12.3865 22.108 12.339 22.2631 12.2969C22.4138 12.2404 22.5644 12.2027 22.7203 12.1605C23.1157 12.0468 23.512 11.9436 23.9127 11.8539C24.257 11.7741 24.6057 11.698 24.9447 11.6325C25.0253 11.6182 25.1006 11.5993 25.1804 11.585C25.3687 11.5571 25.557 11.5195 25.7506 11.4863C25.9441 11.4532 26.137 11.4298 26.3253 11.4012C26.6936 11.3447 27.0703 11.298 27.4334 11.2649L27.999 11.2084C28.1775 11.1896 28.3666 11.1798 28.5504 11.1655H28.6069C28.9647 11.1376 29.3186 11.1233 29.6614 11.1188C30.0433 11.1044 30.4147 11.1044 30.7838 11.1188C31.1528 11.1331 31.5188 11.1376 31.8955 11.1564C32.2397 11.1707 32.5786 11.1986 32.9274 11.2272C32.9513 11.2369 32.9773 11.24 33.0028 11.2363C33.3794 11.2739 33.7469 11.3214 34.1145 11.3681C34.4821 11.4148 34.855 11.4766 35.2226 11.5428C35.5902 11.6091 35.9479 11.6747 36.3155 11.75C36.3343 11.7598 36.3396 11.7643 36.3585 11.7545C36.7072 11.8396 37.0605 11.9195 37.4092 12.0144C37.6638 12.0799 37.9229 12.1417 38.1775 12.226C38.356 12.2735 38.5262 12.33 38.7002 12.382C38.8742 12.4339 39.0355 12.4904 39.1952 12.5469C39.3699 12.5982 39.5296 12.6554 39.6998 12.7119C40.0056 12.8204 40.3122 12.9379 40.6188 13.0554C40.8945 13.1691 41.1678 13.2821 41.4307 13.3951Z" fill="black"/>
</g>
<g style="mix-blend-mode:screen" opacity="0.4">
<path d="M15.722 39.3036C15.7175 39.2893 15.7273 39.2795 15.722 39.275L15.7273 39.2795L15.722 39.3036Z" fill="#0C4E9B"/>
</g>
<g style="mix-blend-mode:screen" opacity="0.4">
<path d="M32.609 11.7644L32.8824 11.8495H32.835C32.7553 11.8347 32.6788 11.8058 32.609 11.7644Z" fill="#0C4E9B"/>
</g>
<g style="mix-blend-mode:screen" opacity="0.4">
<path d="M36.1009 12.1839L36.1671 12.2117C36.1443 12.2044 36.1221 12.195 36.1009 12.1839Z" fill="#0C4E9B"/>
</g>
<g style="mix-blend-mode:screen" opacity="0.4">
<path d="M36.2384 12.2261L36.5774 12.1885C36.545 12.2062 36.5102 12.2189 36.4742 12.2261C36.4379 12.2386 36.3997 12.245 36.3612 12.245H36.3416L36.2384 12.2261Z" fill="#0C4E9B"/>
</g>
</g>
</g>
<defs>
<filter id="filter0_d_104_2" x="0.00146484" y="0" width="75.9985" height="76" filterUnits="userSpaceOnUse" color-interpolation-filters="sRGB">
<feFlood flood-opacity="0" result="BackgroundImageFix"/>
<feColorMatrix in="SourceAlpha" type="matrix" values="0 0 0 0 0 0 0 0 0 0 0 0 0 0 0 0 0 0 127 0" result="hardAlpha"/>
<feOffset dy="4"/>
<feGaussianBlur stdDeviation="2"/>
<feComposite in2="hardAlpha" operator="out"/>
<feColorMatrix type="matrix" values="0 0 0 0 0 0 0 0 0 0 0 0 0 0 0 0 0 0 0.25 0"/>
<feBlend mode="normal" in2="BackgroundImageFix" result="effect1_dropShadow_104_2"/>
<feBlend mode="normal" in="SourceGraphic" in2="effect1_dropShadow_104_2" result="shape"/>
</filter>
</defs>
</svg>
